<svg width="18" height="19" viewBox="0 0 18 19" fill="none" xmlns="http://www.w3.org/2000/svg">
<path fill-rule="evenodd" clip-rule="evenodd" d="M13 0.131592H5C2.23858 0.131592 0 2.37017 0 5.13159V13.1316C0 15.893 2.23858 18.1316 5 18.1316H13C15.7614 18.1316 18 15.893 18 13.1316V5.13159C18 2.37017 15.7614 0.131592 13 0.131592ZM16.25 13.1316C16.2445 14.9242 14.7926 16.3761 13 16.3816H5C3.20735 16.3761 1.75549 14.9242 1.75 13.1316V5.13159C1.75549 3.33894 3.20735 1.88708 5 1.88159H13C14.7926 1.88708 16.2445 3.33894 16.25 5.13159V13.1316ZM13.75 5.38159C14.3023 5.38159 14.75 4.93387 14.75 4.38159C14.75 3.82931 14.3023 3.38159 13.75 3.38159C13.1977 3.38159 12.75 3.82931 12.75 4.38159C12.75 4.93387 13.1977 5.38159 13.75 5.38159ZM9 4.63159C6.51472 4.63159 4.5 6.64631 4.5 9.13159C4.5 11.6169 6.51472 13.6316 9 13.6316C11.4853 13.6316 13.5 11.6169 13.5 9.13159C13.5027 7.93729 13.0294 6.79116 12.1849 5.94667C11.3404 5.10218 10.1943 4.62893 9 4.63159ZM6.25 9.13159C6.25 10.6504 7.4812 11.8816 9 11.8816C10.5188 11.8816 11.75 10.6504 11.75 9.13159C11.75 7.61279 10.5188 6.38159 9 6.38159C7.4812 6.38159 6.25 7.61279 6.25 9.13159Z" fill="white"/>
</svg>
