<svg width="18" height="19" viewBox="0 0 18 19" fill="none" xmlns="http://www.w3.org/2000/svg">
<path fill-rule="evenodd" clip-rule="evenodd" d="M1.5 0.131592C0.67157 0.131592 0 0.803162 0 1.63159V16.6316C0 17.46 0.67157 18.1316 1.5 18.1316H16.5C17.3284 18.1316 18 17.46 18 16.6316V1.63159C18 0.803162 17.3284 0.131592 16.5 0.131592H1.5ZM5.52076 4.13431C5.52639 5.09056 4.81061 5.67978 3.96123 5.67556C3.16107 5.67134 2.46357 5.03431 2.46779 4.13572C2.47201 3.29056 3.13998 2.61134 4.00764 2.63103C4.88795 2.65072 5.52639 3.29619 5.52076 4.13431ZM9.2797 6.89335H6.75971H6.7583V15.4532H9.4217V15.2535C9.4217 14.8736 9.4214 14.4936 9.4211 14.1135C9.4203 13.0997 9.4194 12.0848 9.4246 11.0713C9.426 10.8252 9.4372 10.5693 9.5005 10.3344C9.7381 9.45689 10.5271 8.89019 11.4074 9.02949C11.9727 9.11799 12.3467 9.44569 12.5042 9.97869C12.6013 10.3119 12.6449 10.6705 12.6491 11.0179C12.6605 12.0655 12.6589 13.1131 12.6573 14.1608C12.6567 14.5306 12.6561 14.9006 12.6561 15.2704V15.4518H15.328V15.2465C15.328 14.7945 15.3278 14.3426 15.3275 13.8907C15.327 12.7612 15.3264 11.6317 15.3294 10.5018C15.3308 9.99129 15.276 9.48789 15.1508 8.99429C14.9638 8.26019 14.5771 7.65269 13.9485 7.21399C13.5027 6.90178 13.0133 6.70069 12.4663 6.67819C12.404 6.6756 12.3412 6.67221 12.2781 6.6688C11.9984 6.65368 11.7141 6.63832 11.4467 6.69225C10.6817 6.84553 10.0096 7.19569 9.5019 7.81299C9.4429 7.88379 9.3852 7.95569 9.2991 8.06299L9.2797 8.08729V6.89335ZM2.68164 15.456H5.33242V6.89892H2.68164V15.456Z" fill="white"/>
</svg>
