<svg width="21" height="15" viewBox="0 0 21 15" fill="none" xmlns="http://www.w3.org/2000/svg">
<path d="M20.593 3.09192C20.4791 2.66933 20.2565 2.28393 19.9474 1.97409C19.6383 1.66425 19.2534 1.44078 18.831 1.32592C17.265 0.895923 11 0.888924 11 0.888924C11 0.888924 4.73602 0.881923 3.16902 1.29292C2.74695 1.41307 2.36285 1.6397 2.05359 1.95106C1.74433 2.26242 1.52031 2.64804 1.40302 3.07092C0.990025 4.63692 0.986024 7.88492 0.986024 7.88492C0.986024 7.88492 0.982024 11.1489 1.39202 12.6989C1.62202 13.5559 2.29702 14.2329 3.15502 14.4639C4.73702 14.8939 10.985 14.9009 10.985 14.9009C10.985 14.9009 17.25 14.9079 18.816 14.4979C19.2385 14.3833 19.6238 14.1603 19.9337 13.8511C20.2436 13.5419 20.4674 13.1572 20.583 12.7349C20.997 11.1699 21 7.92292 21 7.92292C21 7.92292 21.02 4.65792 20.593 3.09192ZM8.99603 10.8939L9.00103 4.89392L14.208 7.89892L8.99603 10.8939Z" fill="white"/>
</svg>
